<svg width="500" height="500" viewBox="0 0 500 500" fill="none" xmlns="http://www.w3.org/2000/svg">
<rect x="229" y="416" width="60" height="187" rx="20" transform="rotate(-90 229 416)" fill="white"/>
<path d="M339.675 102.267C344.173 92.1783 356.773 84 367.819 84H395.944C406.99 84 412.298 92.1783 407.8 102.267L276.27 397.273C271.772 407.361 259.171 415.54 248.125 415.54H220C208.954 415.54 203.646 407.361 208.144 397.273L339.675 102.267Z" fill="white"/>
<path d="M203.675 102.267C208.173 92.1783 220.773 84 231.819 84H259.944C270.99 84 276.298 92.1783 271.8 102.267L140.27 397.273C135.772 407.361 123.171 415.54 112.125 415.54H83.9998C72.9541 415.54 67.6462 407.361 72.1441 397.273L203.675 102.267Z" fill="white"/>
</svg>
